<?xml version="1.0" standalone="no"?>
<!DOCTYPE svg PUBLIC "-//W3C//DTD SVG 20010904//EN"
 "http://www.w3.org/TR/2001/REC-SVG-20010904/DTD/svg10.dtd">
<svg version="1.0" xmlns="http://www.w3.org/2000/svg"
 width="451.000000pt" height="451.000000pt" viewBox="0 0 451.000000 451.000000"
 preserveAspectRatio="xMidYMid meet">

<g transform="translate(0.000000,451.000000) scale(0.100000,-0.100000)"
fill="#000000" stroke="none">
<path d="M0 2255 l0 -2255 2255 0 2255 0 0 2255 0 2255 -2255 0 -2255 0 0
-2255z m2755 1251 c6 -2 40 -53 75 -112 230 -392 614 -1040 648 -1094 l42 -65
2 635 3 635 335 0 335 0 5 -185 c3 -102 4 -652 2 -1222 l-2 -1037 -323 -3
c-177 -2 -326 -2 -332 0 -5 2 -62 92 -125 200 -157 270 -272 465 -479 812
l-176 295 -5 -650 -5 -650 -380 -6 c-517 -8 -1990 -10 -2009 -3 -14 6 -16 123
-16 1230 l0 1224 578 2 c642 3 1811 -1 1827 -6z"/>
<path d="M2090 3399 c0 -50 1 -52 69 -115 120 -111 171 -240 171 -434 0 -112
-21 -213 -61 -294 -32 -62 -98 -144 -146 -181 -47 -36 -48 -35 27 -77 62 -36
142 -123 178 -194 51 -100 65 -167 65 -289 -1 -138 -20 -222 -80 -345 -39 -81
-59 -108 -134 -183 -82 -81 -89 -91 -89 -128 l0 -39 300 0 300 0 0 23 c0 12 0
341 0 730 0 568 2 708 12 705 7 -3 72 -103 144 -224 234 -391 485 -814 608
-1026 l121 -208 282 0 283 0 0 1165 0 1165 -280 0 -280 0 0 -710 c0 -390 -3
-710 -7 -710 -5 0 -63 91 -130 203 -201 335 -668 1128 -697 1185 l-17 32 -319
0 -320 0 0 -51z"/>
<path d="M1025 2982 c-3 -3 -5 -99 -5 -214 l0 -208 193 0 c105 0 212 5 237 11
92 21 151 85 158 174 6 79 -5 121 -44 165 -55 61 -98 70 -333 74 -111 1 -203
0 -206 -2z"/>
<path d="M1020 1834 l0 -225 248 3 c232 3 249 4 288 25 83 44 120 116 111 214
-6 69 -36 126 -83 158 -61 42 -121 51 -351 51 l-213 0 0 -226z"/>
</g>
</svg>
