<?xml version="1.0" encoding="UTF-8"?>
<svg xmlns="http://www.w3.org/2000/svg" width="451" height="451" viewBox="0 0 451 451">
<path d="M0 0 C148.83 0 297.66 0 451 0 C451 148.83 451 297.66 451 451 C302.17 451 153.34 451 0 451 C0 302.17 0 153.34 0 0 Z " fill="#3A5C3D" transform="translate(0,0)"/>
<path d="M0 0 C59.2453125 -0.6496875 59.2453125 -0.6496875 119.6875 -1.3125 C138.38281372 -1.59927612 138.38281372 -1.59927612 157.45581055 -1.8918457 C172.69494629 -1.98669434 172.69494629 -1.98669434 179.83283997 -2.00431824 C184.81177398 -2.02386193 189.78599088 -2.10242218 194.7636261 -2.21708679 C201.12226537 -2.3616143 207.47409123 -2.40424626 213.83422053 -2.3745178 C216.1622721 -2.38072833 218.49057156 -2.42213888 220.81720865 -2.50351775 C235.00391067 -2.97650362 235.00391067 -2.97650362 241 0 C246.46426491 5.13826655 249.72348258 11.77300334 252.83041441 18.50667441 C254.37792609 21.80566381 256.19948219 24.85388004 258.09375 27.96484375 C259.23234521 29.95391305 260.36781472 31.94477517 261.5 33.9375 C262.7673022 36.15027073 264.03554771 38.36250146 265.3046875 40.57421875 C265.92311523 41.6523584 266.54154297 42.73049805 267.17871094 43.84130859 C271.52344115 51.37644525 275.9765949 58.84805917 280.41601562 66.32763672 C282.00534956 69.00902531 283.58948389 71.6934153 285.171875 74.37890625 C292.76616864 87.26450572 300.43886047 100.10186233 308.14819336 112.91894531 C309.80530467 115.67606393 311.46079827 118.43414347 313.11573792 121.19256592 C313.65590325 122.09288921 314.19606859 122.99321251 314.75260258 123.92081833 C315.16424373 124.60694828 315.57588488 125.29307823 316 126 C316.00423194 125.35670526 316.00846388 124.71341051 316.01282406 124.05062199 C316.11599285 108.41966591 316.22460964 92.78875873 316.33933926 77.15788364 C316.39468865 69.59900543 316.4481734 62.0401225 316.49731445 54.48120117 C316.54013534 47.89517374 316.58640793 41.30918131 316.63687855 34.72320789 C316.66349646 31.23388986 316.68834986 27.74457884 316.70907402 24.25522041 C316.73223673 20.36614477 316.76310358 16.4771517 316.79467773 12.58813477 C316.8004332 11.42288773 316.80618866 10.25764069 316.81211853 9.05708313 C316.82190735 8.00393921 316.83169617 6.95079529 316.84178162 5.86573792 C316.84823417 4.94486672 316.85468672 4.02399553 316.8613348 3.07521915 C317 1 317 1 318 0 C320.05012846 -0.09939626 322.10371392 -0.12799553 324.15625 -0.12939453 C325.47431641 -0.13254669 326.79238281 -0.13569885 328.15039062 -0.13894653 C329.60026075 -0.13715675 331.05013058 -0.1351058 332.5 -0.1328125 C333.97591162 -0.13348557 335.45182313 -0.13445563 336.92773438 -0.13571167 C340.02475029 -0.13718848 343.12173742 -0.13503464 346.21875 -0.13037109 C350.19708549 -0.1246738 354.17535352 -0.1279529 358.15368652 -0.13394356 C361.20247917 -0.13754963 364.25125571 -0.13641037 367.30004883 -0.13381577 C368.76733406 -0.13314662 370.23462074 -0.13397447 371.7019043 -0.13629532 C373.74918593 -0.13882257 375.79647266 -0.1342906 377.84375 -0.12939453 C379.59461914 -0.12820114 379.59461914 -0.12820114 381.38085938 -0.12698364 C384 0 384 0 385 1 C385.09806502 4.13501696 385.12990394 7.24802117 385.12025452 10.38343811 C385.12153615 11.87929991 385.12153615 11.87929991 385.12284368 13.40538114 C385.1245015 16.77425954 385.1189722 20.14308902 385.11352539 23.51196289 C385.11324356 25.9160207 385.11340118 28.32007859 385.1139679 30.72413635 C385.11419621 35.91394086 385.11134488 41.10373415 385.10573006 46.29353523 C385.09761714 53.79719789 385.09500005 61.30085445 385.09374207 68.80452102 C385.09155122 80.97751289 385.08489024 93.15049808 385.07543945 105.32348633 C385.06626618 117.15128547 385.05918494 128.97908279 385.05493164 140.80688477 C385.05453756 141.89973106 385.05453756 141.89973106 385.05413551 143.01465506 C385.05283051 146.6694978 385.05156679 150.32434055 385.05032361 153.97918332 C385.03994997 184.31946033 385.02225664 214.65972924 385 245 C376.67364009 245.63086672 368.35746553 246.1075474 360.01300049 246.39892864 C356.13509103 246.53896824 352.27366525 246.72765389 348.40527344 247.03686523 C328.06083328 248.62051396 328.06083328 248.62051396 319 245 C311.7792574 238.73086026 308.14539794 230.20103889 304.53175354 221.49688721 C302.1001529 215.94571142 298.95600807 210.85717431 295.8125 205.6875 C294.65640232 203.71052378 293.50358486 201.73162212 292.35546875 199.75 C287.52422307 191.46070213 282.6373998 183.20443721 277.74658203 174.95019531 C275.86873311 171.77827383 273.99476862 168.60407625 272.12109375 165.4296875 C265.00054074 153.37640798 257.83070736 141.3568533 250.51586914 129.42016602 C249.97953857 128.54416748 249.44320801 127.66816895 248.890625 126.765625 C248.39111328 125.95029297 247.89160156 125.13496094 247.37695312 124.29492188 C246.11588103 122.19313506 244.91753879 120.06812976 243.734375 117.921875 C242.31629517 114.93278862 242.31629517 114.93278862 240 114 C240 157.23 240 200.46 240 245 C160.8 245 81.6 245 0 245 C0 164.15 0 83.3 0 0 Z " fill="#F5F4F1" transform="translate(35,100)"/>
<path d="M0 0 C8.24064484 -0.2088764 16.48017782 -0.36860936 24.72281837 -0.46630955 C28.5507034 -0.51321163 32.37677319 -0.57677372 36.20361328 -0.67895508 C39.89961823 -0.7770211 43.59388233 -0.83061017 47.2910881 -0.85389519 C48.69869782 -0.87047844 50.10621595 -0.90286737 51.5130806 -0.95157051 C62.50475913 -1.31681811 62.50475913 -1.31681811 66.11886597 1.86602783 C67.68861522 4.17959366 68.8688594 6.44712301 70 9 C70.89307861 10.47509033 70.89307861 10.47509033 71.80419922 11.97998047 C72.29936035 12.85025879 72.79452148 13.72053711 73.3046875 14.6171875 C73.87944824 15.62177002 74.45420898 16.62635254 75.04638672 17.66137695 C75.6498291 18.72187256 76.25327148 19.78236816 76.875 20.875 C78.20701632 23.19998898 79.53995364 25.52440971 80.875 27.84765625 C81.21546356 28.44037827 81.55592712 29.03310028 81.90670776 29.64378357 C85.50672068 35.89992753 89.18578139 42.10861001 92.875 48.3125 C98.05504733 57.02388194 103.20403643 65.75174932 108.31719971 74.50247192 C116.38010388 88.2991054 124.56744015 102.01852526 132.81387329 115.7061615 C134.70068375 118.83824022 136.58338281 121.97271399 138.4609375 125.11035156 C138.86920776 125.7922757 139.27747803 126.47419983 139.69812012 127.17678833 C140.48495498 128.49141949 141.27119939 129.80640428 142.0567627 131.12179565 C143.65339903 133.78862671 145.27537913 136.41306869 147 139 C147 139.99 147 140.98 147 142 C147.66 142 148.32 142 149 142 C149 95.14 149 48.28 149 0 C167.48 0 185.96 0 205 0 C205 77.22 205 154.44 205 234 C186.52 234 168.04 234 149 234 C142.25771378 223.88657067 142.25771378 223.88657067 139.88671875 219.6171875 C139.10554688 218.22004517 139.10554688 218.22004517 138.30859375 216.79467773 C137.77363281 215.83118408 137.23867188 214.86769043 136.6875 213.875 C132.35841843 206.14790772 127.95590406 198.48671826 123.36328125 190.9140625 C120.42844901 186.07228897 117.562041 181.19021572 114.6875 176.3125 C110.48712634 169.19079088 106.26221727 162.08486836 102 155 C97.80042171 148.01917979 93.63788466 141.01756226 89.5 134 C84.38802477 125.33176856 79.23323085 116.69031778 74.046875 108.06640625 C70.02615281 101.38066691 66.01390179 94.68983631 62 88 C61.67 136.18 61.34 184.36 61 234 C40.54 234 20.08 234 -1 234 C-1 224 -1 224 0.9765625 221.51953125 C2.28753906 220.67455078 2.28753906 220.67455078 3.625 219.8125 C14.68265792 211.98516912 22.57295789 200.15984172 26 187 C26.27585938 186.21625 26.55171875 185.4325 26.8359375 184.625 C31.36012659 170.34682525 31.23558433 151.72219499 25 138 C24.39865234 136.58074219 24.39865234 136.58074219 23.78515625 135.1328125 C18.67586777 124.44033051 9.61139827 116.97818684 -1 112 C0.12482058 108.62553826 0.98399549 107.98045314 3.6875 105.8125 C7.84809305 102.2931453 10.89310196 98.44497212 14 94 C14.50789062 93.35804688 15.01578125 92.71609375 15.5390625 92.0546875 C17.09434876 89.86730629 18.07155755 87.80389781 19.0625 85.3125 C19.38347656 84.52488281 19.70445312 83.73726563 20.03515625 82.92578125 C25.68855162 65.78248921 24.91729794 45.29758768 16.8125 29.125 C13.25487082 22.9574399 9.00953038 16.86610383 2.39501953 13.78759766 C0 12 0 12 -0.48828125 9.08203125 C-0.43027344 8.00308594 -0.37226563 6.92414063 -0.3125 5.8125 C-0.26738281 4.72582031 -0.22226563 3.63914062 -0.17578125 2.51953125 C-0.11777344 1.68808594 -0.05976563 0.85664062 0 0 Z " fill="#3C5D3E" transform="translate(209,106)"/>
<path d="M0 0 C10.7971875 -0.12375 10.7971875 -0.12375 21.8125 -0.25 C24.06167236 -0.28641602 26.31084473 -0.32283203 28.62817383 -0.36035156 C39.9419398 -0.46745704 50.13158665 -0.54331325 59.625 6.4375 C62.08827711 9.09524635 62.79593517 10.42886551 63 14 C63.66 14 64.32 14 65 14 C66.69636229 20.01312162 67.06852022 26.38287061 64.5 32.1875 C60.99487217 38.29360608 55.97877633 42.73273483 49.15544128 44.59225464 C44.81792153 45.41278432 40.43381664 45.24108699 36.03515625 45.1953125 C35.00184677 45.1924826 33.96853729 45.18965271 32.90391541 45.18673706 C29.62332278 45.17559647 26.34300927 45.15050304 23.0625 45.125 C20.83008208 45.1149623 18.59765986 45.10583783 16.36523438 45.09765625 C10.90996379 45.07738397 5.4552921 45.03822314 0 45 C0 30.15 0 15.3 0 0 Z " fill="#3D5E3F" transform="translate(102,245)"/>
<path d="M0 0 C6.373125 -0.0825 12.74625 -0.165 19.3125 -0.25 C21.30063721 -0.28641602 23.28877441 -0.32283203 25.3371582 -0.36035156 C35.96500007 -0.47324204 44.65943034 0.08773362 53.9375 5.8125 C60.18178062 12.43522187 60.40240006 17.21779807 60.140625 26.18359375 C60.09421875 27.11300781 60.0478125 28.04242188 60 29 C59.34 29 58.68 29 58 29 C57.7525 29.721875 57.505 30.44375 57.25 31.1875 C54.96957063 36.31846609 52.65619964 38.95135454 47.47900391 41.12792969 C42.14358653 43.1766396 37.50275685 43.52614634 31.8359375 43.390625 C30.6125769 43.38458252 30.6125769 43.38458252 29.36450195 43.37841797 C26.36776677 43.35776046 23.37135661 43.30191878 20.375 43.25 C10.289375 43.12625 10.289375 43.12625 0 43 C0 28.81 0 14.62 0 0 Z " fill="#3E5F40" transform="translate(102,152)"/>
<path d="M0 0 C8.63956097 -0.48951046 17.27427741 -0.86101827 25.92473888 -1.08805561 C29.94369756 -1.19712353 33.9531018 -1.34445216 37.96655273 -1.58422852 C63.73286506 -3.08313703 63.73286506 -3.08313703 70.65802002 1.92050171 C75.04136369 6.78746946 77.61196859 12.34214136 79.96279907 18.40475464 C81.34337701 21.8591851 83.13106906 24.80680725 85.09375 27.96484375 C86.23234521 29.95391305 87.36781472 31.94477517 88.5 33.9375 C89.7673022 36.15027073 91.03554771 38.36250146 92.3046875 40.57421875 C92.92311523 41.6523584 93.54154297 42.73049805 94.17871094 43.84130859 C98.52344115 51.37644525 102.9765949 58.84805917 107.41601562 66.32763672 C109.00534956 69.00902531 110.58948389 71.6934153 112.171875 74.37890625 C119.76616864 87.26450572 127.43886047 100.10186233 135.14819336 112.91894531 C137.76798517 117.27778151 140.38350898 121.63918163 143 126 C143.495 64.125 143.495 64.125 144 1 C144.33 1 144.66 1 145 1 C145.33 41.59 145.66 82.18 146 124 C146.66 124 147.32 124 148 124 C148.495 65.095 148.495 65.095 149 5 C168.14 5 187.28 5 207 5 C207 82.22 207 159.44 207 239 C206.67 239 206.34 239 206 239 C206 162.11 206 85.22 206 6 C187.52 6 169.04 6 150 6 C150 52.86 150 99.72 150 148 C149.34 148 148.68 148 148 148 C147.63793457 147.32702881 147.27586914 146.65405762 146.90283203 145.96069336 C143.35840708 139.41210354 139.68169588 132.96166179 135.875 126.5625 C135.31079346 125.61076904 134.74658691 124.65903809 134.1652832 123.6784668 C130.04301425 116.73275752 125.88908352 109.80625439 121.72753906 102.8840332 C111.24216626 85.42939168 100.90997416 67.88514361 90.6640625 50.2890625 C86.80643963 43.66471067 82.94007664 37.0455046 79.06710815 30.43011475 C78.32457288 29.16137543 77.58247407 27.89238056 76.84085083 26.62310791 C75.79998797 24.84181907 74.75759008 23.06143676 73.71484375 21.28125 C73.11792725 20.26095703 72.52101074 19.24066406 71.90600586 18.18945312 C71.27702393 17.13693359 70.64804199 16.08441406 70 15 C69.72473984 14.29544678 69.44947968 13.59089355 69.1658783 12.86499023 C68.02599316 10.34405436 67.09887936 8.82091546 65 7 C60.204306 5.80079426 55.42296864 5.92765982 50.51171875 6 C49.08394666 5.9924775 47.65618914 5.98144002 46.22846985 5.96704102 C42.4812901 5.93865362 38.73582244 5.95786364 34.9887085 5.98712158 C31.16097936 6.00854298 27.33355708 5.98476919 23.50585938 5.96484375 C16.00347953 5.93242777 8.50233308 5.95031156 1 6 C1 9.63 1 13.26 1 17 C0.67 17 0.34 17 0 17 C0 13.04 0 9.08 0 5 C7.59 4.67 15.18 4.34 23 4 C23.33 3.34 23.66 2.68 24 2 C16.08 1.67 8.16 1.34 0 1 C0 0.67 0 0.34 0 0 Z " fill="#D2D9D0" transform="translate(208,100)"/>
<path d="M0 0 C0.33 0 0.66 0 1 0 C1.00808685 0.80766312 1.01617371 1.61532623 1.02450562 2.44746399 C1.10241146 10.05491984 1.18968977 17.66218278 1.28752708 25.26940632 C1.33749615 29.18046323 1.383826 33.09149306 1.421875 37.00268555 C1.45872031 40.77644285 1.50507793 44.54997383 1.55806351 48.32353783 C1.57661153 49.76400983 1.59171801 51.20453035 1.60334396 52.64507484 C1.62019865 54.66102193 1.65036894 56.67684444 1.68115234 58.69262695 C1.69447601 59.84068314 1.70779968 60.98873932 1.7215271 62.17158508 C1.79612833 65.20390666 1.79612833 65.20390666 4 68 C4.26742554 70.23204041 4.26742554 70.23204041 4.29052734 72.86694336 C4.30328705 73.8548436 4.31604675 74.84274384 4.32919312 75.86058044 C4.33141876 76.92623734 4.33364441 77.99189423 4.3359375 79.08984375 C4.3425943 80.18591446 4.3492511 81.28198517 4.35610962 82.41127014 C4.36623957 84.73046183 4.37092653 87.04968269 4.37060547 89.36889648 C4.37497875 92.92024654 4.41129669 96.47035428 4.44921875 100.02148438 C4.45508672 102.27343324 4.45905624 104.52538802 4.4609375 106.77734375 C4.48249405 108.37279274 4.48249405 108.37279274 4.50448608 110.00047302 C4.49833282 110.99152542 4.49217957 111.98257782 4.48583984 113.00366211 C4.48868988 113.87397568 4.49153992 114.74428925 4.49447632 115.64097595 C4 118 4 118 0 122 C0 81.74 0 41.48 0 0 Z " fill="#F4F4F0" transform="translate(353,106)"/>
<path d="M0 0 C0.33 0 0.66 0 1 0 C1.00331015 0.57868458 1.00662029 1.15736916 1.01003075 1.75358963 C1.09124658 15.83343296 1.18333435 29.91317006 1.28752708 43.9928627 C1.33765165 50.80169681 1.38409455 57.61051888 1.421875 64.41943359 C1.45833037 70.98767527 1.50503932 77.55579196 1.55806351 84.12392426 C1.57662778 86.63257305 1.59172817 89.1412499 1.60334396 91.64994049 C1.6201714 95.1577144 1.64919853 98.66518746 1.68115234 102.17285156 C1.68331253 103.21510391 1.68547272 104.25735626 1.68769836 105.33119202 C1.69886185 106.28749008 1.71002533 107.24378815 1.7215271 108.22906494 C1.72982324 109.47348547 1.72982324 109.47348547 1.73828697 110.74304581 C1.87202753 113.05992528 1.87202753 113.05992528 3.09943581 115.12630844 C3.39662199 115.74462666 3.69380817 116.36294487 4 117 C2.6875 119.75 2.6875 119.75 1 122 C0.67 122 0.34 122 0 122 C0 81.74 0 41.48 0 0 Z " fill="#FBFAF9" transform="translate(353,106)"/>
<path d="M0 0 C0.99 0 1.98 0 3 0 C3 7.26 3 14.52 3 22 C-1.30776053 17.69223947 -6.69334368 12.22587366 -7.16015625 5.79296875 C-6.875 3.875 -6.875 3.875 -6 1 C-5.34 1.33 -4.68 1.66 -4 2 C-4 2.66 -4 3.32 -4 4 C-2.68 4 -1.36 4 0 4 C0 2.68 0 1.36 0 0 Z " fill="#F0F1ED" transform="translate(354,224)"/>
</svg>
