<?xml version="1.0" encoding="UTF-8"?>
<svg xmlns="http://www.w3.org/2000/svg" width="630" height="450" viewBox="0 0 630 450">
<path d="M0 0 C207.9 0 415.8 0 630 0 C630 148.5 630 297 630 450 C422.1 450 214.2 450 0 450 C0 301.5 0 153 0 0 Z " fill="#3B5D3E" transform="translate(0,0)"/>
<path d="M0 0 C207.9 0 415.8 0 630 0 C630 148.5 630 297 630 450 C422.1 450 214.2 450 0 450 C0 301.5 0 153 0 0 Z M60 75 C60 176.97 60 278.94 60 384 C167.25 384 274.5 384 385 384 C385.33 331.2 385.66 278.4 386 224 C390.29 230.6 394.58 237.2 399 244 C400.876875 246.8875 402.75375 249.775 404.6875 252.75 C408.59738295 258.79306077 412.43628337 264.87505543 416.2355957 270.98803711 C419.23073092 275.79687018 422.28762499 280.56243861 425.375 285.3125 C430.81996688 293.69218564 436.16013962 302.13569913 441.48388672 310.59277344 C443.98526718 314.56436947 446.49292509 318.53199716 449 322.5 C450.00003062 324.08331399 451.00003061 325.66664733 452 327.25 C452.495 328.03375 452.99 328.8175 453.5 329.625 C458 336.75 458 336.75 459.50073242 339.1262207 C460.4982175 340.70553146 461.49577579 342.28479598 462.4934082 343.86401367 C465.03249671 347.88351145 467.57020834 351.90386767 470.10546875 355.92578125 C470.62173828 356.74433594 471.13800781 357.56289063 471.66992188 358.40625 C472.63135166 359.93067922 473.59234362 361.45538473 474.55273438 362.98046875 C478.99130543 370.01614362 483.50091913 377.00142976 488 384 C517.7 384 547.4 384 578 384 C578 282.03 578 180.06 578 75 C546.98 75 515.96 75 484 75 C483.67 126.81 483.34 178.62 483 232 C480.03 227.05 477.06 222.1 474 217 C470.34447027 211.48979517 470.34447027 211.48979517 466.66015625 206 C462.13477359 199.24317632 457.85423694 192.32722839 453.53222656 185.43945312 C451.0293658 181.45465633 448.51411209 177.47770353 446 173.5 C444.99605087 171.91018333 443.99214461 170.32033958 442.98828125 168.73046875 C441.02888348 165.62792965 439.06786085 162.52642718 437.10546875 159.42578125 C427.74224877 144.62625906 418.46828016 129.77121653 409.203125 114.91015625 C408.57188721 113.89848389 407.94064941 112.88681152 407.2902832 111.84448242 C406.12651161 109.97928886 404.9634772 108.11363492 403.80151367 106.24731445 C402.65926703 104.4170314 401.48627081 102.60565811 400.28672981 100.81240273 C398.40850914 97.86507165 397.02874212 94.83825343 395.636549 91.63519859 C392.24265383 84.4659417 388.61758088 76.9068016 380.93920946 73.73606539 C372.39367971 71.87163452 363.67438431 72.18304737 354.98315263 72.44655633 C351.01748979 72.54230169 347.05252382 72.50936355 343.08602905 72.4927063 C336.22752013 72.48121385 329.37364337 72.54974032 322.5163002 72.67393875 C312.60280125 72.85337181 302.69152334 72.91009066 292.77657674 72.93767457 C276.68848802 72.985729 260.60286464 73.13186545 244.51611328 73.34033203 C228.89709545 73.54252579 213.27875258 73.6978691 197.65869141 73.79150391 C196.68477239 73.79739985 195.71085337 73.80329579 194.70742166 73.8093704 C187.08980553 73.85512243 179.47217476 73.89817311 171.8545382 73.9403708 C134.56742866 74.14761233 97.28649651 74.59025828 60 75 Z " fill="#F8F6F1" transform="translate(0,0)"/>
<path d="M0 0 C11.08170456 -0.55894111 22.16000818 -0.98383753 33.25299168 -1.24349213 C38.4064264 -1.36821509 43.55015579 -1.5368173 48.69799805 -1.81054688 C83.00423778 -3.58789856 83.00423778 -3.58789856 90.29315186 2.2800293 C95.40023134 7.80571015 98.29219326 13.98848444 100.82601929 21.00817871 C102.61786557 25.57459432 105.25699057 29.45975336 108 33.5 C108.97363538 35.02814832 109.94294717 36.55906737 110.90625 38.09375 C111.40125 38.8775 111.89625 39.66125 112.40625 40.46875 C115.45078374 45.30418594 118.47426594 50.15278703 121.5 55 C127.4885158 64.59239899 133.50946124 74.16355781 139.55712891 83.71875 C141.01248433 86.01973833 142.46559118 88.32213105 143.91796875 90.625 C150.98169083 101.8239549 158.08223304 112.99915569 165.19580078 124.16650391 C167.02625662 127.04123603 168.85516031 129.91694994 170.68359375 132.79296875 C174.11946416 138.19718215 177.55817659 143.59957597 181 149 C181.43683105 149.68562012 181.87366211 150.37124023 182.32373047 151.07763672 C185.74959134 156.44921979 189.18053939 161.81344946 192.76953125 167.078125 C193.4670752 168.10595093 193.4670752 168.10595093 194.17871094 169.15454102 C195.08066167 170.47961931 195.98859476 171.8006513 196.90332031 173.11694336 C200 177.66758202 200 177.66758202 200 181 C200.66 181 201.32 181 202 181 C202 121.27 202 61.54 202 0 C227.08 0 252.16 0 278 0 C278 96.69 278 193.38 278 293 C252.26 293 226.52 293 200 293 C198.68 290.36 197.36 287.72 196 285 C195.02063204 283.33936615 194.01334594 281.69461552 192.96875 280.07421875 C192.41171387 279.20514893 191.85467773 278.3360791 191.28076172 277.44067383 C190.69311035 276.53212646 190.10545898 275.6235791 189.5 274.6875 C188.24188115 272.72675904 186.98407395 270.76581807 185.7265625 268.8046875 C185.09911133 267.82854492 184.47166016 266.85240234 183.82519531 265.84667969 C181.1546279 261.68150901 178.51303811 257.49832179 175.875 253.3125 C174.89325271 251.75649556 173.91148194 250.20050594 172.9296875 248.64453125 C172.44725586 247.87963379 171.96482422 247.11473633 171.46777344 246.32666016 C168.98016644 242.38339757 166.48996615 238.44177316 164 234.5 C161.02219129 229.78594137 158.04484165 225.07159764 155.0703125 220.35546875 C148.00691807 209.15903724 140.90786097 197.98563567 133.79541016 186.8203125 C131.99075998 183.98548536 130.18840203 181.14921354 128.38671875 178.3125 C122.69003274 169.34560914 116.97638835 160.39136984 111.18945312 151.48242188 C106.7839235 144.69029494 102.44679251 137.85491424 98.12109375 131.01171875 C93.84552643 124.26716186 89.43317661 117.64976491 85 111 C84.67 171.06 84.34 231.12 84 293 C56.28 293 28.56 293 0 293 C0 290.36 0 287.72 0 285 C2.2734375 282.78515625 2.2734375 282.78515625 5.375 281.0625 C24.04204576 269.72188583 33.37949909 253.07620815 39.203125 232.359375 C44.17080428 211.41719766 42.30180006 188.32673677 32.09375 169.31640625 C23.58067894 155.83208288 11.61946687 148.74304716 -2 141 C0.59034757 138.30463834 3.21419551 136.04811185 6.25 133.875 C11.42273559 129.89139903 15.21590588 125.29131805 19 120 C19.5465625 119.25234375 20.093125 118.5046875 20.65625 117.734375 C32.66904159 99.71518762 33.89703149 72.93409456 30.12890625 52.32421875 C26.35304678 35.65023274 18.44534036 21.96708181 4.13671875 12.34765625 C2.06136708 10.98948042 2.06136708 10.98948042 0 10 C0 6.7 0 3.4 0 0 Z " fill="#F6F5F0" transform="translate(292,83)"/>
<path d="M0 0 C7.98292685 -0.08425253 15.96421137 -0.16434477 23.94719696 -0.20700073 C27.66592239 -0.22798511 31.38427367 -0.25594964 35.1027832 -0.30175781 C38.69493544 -0.3457245 42.28672854 -0.36924205 45.87912941 -0.37950897 C47.89347318 -0.39032566 49.90767563 -0.4214672 51.92179871 -0.45318604 C62.32658574 -0.45568026 73.86963563 0.86114348 82 8 C88.19733936 14.72253761 90.57610569 21.46307677 90.30859375 30.57421875 C89.36450478 37.99547512 86.67135685 44.53302515 81.05859375 49.56640625 C73.68521951 54.7011849 65.36376874 56.13125255 56.53564453 56.11352539 C55.27479034 56.11344986 54.01393616 56.11337433 52.71487427 56.11329651 C51.3541866 56.10819109 49.99349935 56.10297511 48.6328125 56.09765625 C47.22891287 56.09578912 45.82501258 56.09436661 44.42111206 56.09336853 C40.74192478 56.08956658 37.06277752 56.07975633 33.38360596 56.06866455 C29.62293041 56.05840031 25.86224815 56.05380526 22.1015625 56.04882812 C14.73433975 56.03866363 7.36722665 56.01908608 0 56 C0 37.52 0 19.04 0 0 Z " fill="#F5F3EE" transform="translate(151,258)"/>
<path d="M0 0 C7.88716602 -0.08417966 15.77267909 -0.16428071 23.65990448 -0.20700073 C27.33377048 -0.22801232 31.00725965 -0.25602903 34.6809082 -0.30175781 C38.22766472 -0.3456244 41.77405877 -0.36922168 45.3210659 -0.37950897 C47.31445154 -0.39035921 49.30769393 -0.42151824 51.30085754 -0.45318604 C60.9132125 -0.45552721 69.65459007 0.63667775 77 7.3125 C82.27806754 13.31203001 83.5856776 19.01424395 83.33984375 26.87109375 C82.5735928 33.925887 80.62266576 39.93333592 75.4375 44.9375 C66.29403644 51.73452276 56.90036425 52.5731217 45.80078125 52.390625 C44.48458298 52.38496521 43.1683847 52.37930542 41.81230164 52.37347412 C38.35153525 52.35836726 34.89146489 52.3192204 31.43096924 52.2746582 C27.88441547 52.23337762 24.33774336 52.21517304 20.79101562 52.1953125 C13.86006699 52.15483981 6.93101725 52.07651537 0 52 C0 34.84 0 17.68 0 0 Z " fill="#F5F3EE" transform="translate(151,144)"/>
<path d="M0 0 C0.33 0 0.66 0 1 0 C1.33 8.58 1.66 17.16 2 26 C1.34 26 0.68 26 0 26 C0.185625 26.928125 0.37125 27.85625 0.5625 28.8125 C1 32 1 32 0 35 C-0.66 35 -1.32 35 -2 35 C-2.33 35.99 -2.66 36.98 -3 38 C-2.53832374 34.70231245 -2.07445454 31.41371473 -1.48461914 28.13623047 C-1.00727034 25.04705025 -0.79625503 22.06763936 -0.68359375 18.9453125 C-0.64169922 17.83671875 -0.59980469 16.728125 -0.55664062 15.5859375 C-0.51732422 14.44382813 -0.47800781 13.30171875 -0.4375 12.125 C-0.39431641 10.9596875 -0.35113281 9.794375 -0.30664062 8.59375 C-0.20098371 5.72927375 -0.09888201 2.86471679 0 0 Z " fill="#B6C1B4" transform="translate(324,145)"/>
<path d="M0 0 C4.875 4.625 4.875 4.625 6 8 C5.01 8 4.02 8 3 8 C0 2.25 0 2.25 0 0 Z " fill="#456145" transform="translate(450,309)"/>
</svg>
