<svg xmlns="http://www.w3.org/2000/svg" viewBox="0 0 128 128" width="128" height="128">
  <!-- 16% Rounded Square Container -->
  <rect x="4" y="4" width="120" height="120" rx="20" fill="#355E3B" stroke="#B08D57" stroke-width="4" />

  <!-- White Monogram Mark centered inside -->
  <g transform="translate(20, 26) scale(1.05)">
    <!-- Letter B -->
    <path fill="#FFFFFF" d="M 8,8 L 24,8 C 29,8 32,10.5 32,14.5 C 32,17.5 30,19.5 27,20.5 C 31,21.5 33,24 33,28.5 C 33,33 29.5,37 24,37 L 8,37 Z M 14,13 L 14,19 L 23,19 C 25.5,19 27,17.8 27,16 C 27,14.2 25.5,13 23,13 Z M 14,24 L 14,32 L 24,32 C 26.8,32 28.5,30.5 28.5,28 C 28.5,25.5 26.8,24 24,24 Z" />

    <!-- Letter N Left Stem -->
    <rect fill="#FFFFFF" x="38" y="8" width="6" height="29" />

    <!-- Letter N Diagonal & Right Stem (White Outlines) -->
    <path stroke="#FFFFFF" stroke-width="5.5" stroke-linecap="square" fill="none" d="M 39,10 L 73,36.5" />
    <path stroke="#FFFFFF" stroke-width="5.5" stroke-linecap="square" fill="none" d="M 73,8 L 73,37" />
  </g>
</svg>
